<?xml version="1.0" standalone="no"?>
<!DOCTYPE svg PUBLIC "-//W3C//DTD SVG 20010904//EN"
 "http://www.w3.org/TR/2001/REC-SVG-20010904/DTD/svg10.dtd">
<svg version="1.0" xmlns="http://www.w3.org/2000/svg"
 width="500.000000pt" height="500.000000pt" viewBox="0 0 500.000000 500.000000"
 preserveAspectRatio="xMidYMid meet">

<g transform="translate(0.000000,500.000000) scale(0.100000,-0.100000)"
fill="#000000" stroke="none">
<path d="M2347 4909 c-399 -22 -823 -165 -1167 -395 -530 -353 -901 -900
-1030 -1517 -27 -127 -50 -301 -42 -307 4 -3 297 -4 652 -2 l645 4 22 91 c45
184 176 404 321 538 214 198 473 299 767 299 265 0 494 -80 703 -245 183 -145
330 -372 385 -595 l22 -92 640 1 c352 0 644 1 649 1 19 0 -17 245 -65 435 -47
184 -181 492 -286 655 -361 564 -892 938 -1533 1079 -221 49 -422 64 -683 50z"/>
<path d="M2355 3246 c-285 -66 -496 -268 -577 -553 -30 -106 -30 -274 0 -386
69 -255 267 -460 522 -539 65 -20 94 -23 220 -22 126 1 155 4 222 26 199 66
364 209 453 393 57 118 78 214 78 340 -1 119 -21 209 -68 313 -91 197 -263
347 -470 412 -90 28 -290 37 -380 16z"/>
<path d="M106 2312 c-13 -22 45 -344 90 -492 233 -783 826 -1384 1604 -1628
232 -73 438 -104 700 -105 217 -1 319 9 514 49 722 151 1338 629 1661 1289 85
174 131 295 173 455 41 151 61 268 64 360 l3 75 -644 0 -645 0 -22 -85 c-29
-114 -47 -159 -98 -256 -160 -300 -451 -516 -781 -579 -116 -22 -337 -20 -445
4 -340 76 -618 295 -774 608 -41 82 -96 242 -96 279 0 7 -9 18 -19 24 -24 12
-1277 14 -1285 2z"/>
</g>
</svg>
