<?xml version="1.0" standalone="no"?>
<!DOCTYPE svg PUBLIC "-//W3C//DTD SVG 20010904//EN"
 "http://www.w3.org/TR/2001/REC-SVG-20010904/DTD/svg10.dtd">
<svg version="1.0" xmlns="http://www.w3.org/2000/svg"
 width="500.000000pt" height="500.000000pt" viewBox="0 0 500.000000 500.000000"
 preserveAspectRatio="xMidYMid meet">

<g transform="translate(0.000000,500.000000) scale(0.100000,-0.100000)"
fill="#000000" stroke="none">
<path d="M705 3496 c-139 -64 -196 -221 -129 -354 102 -206 413 -180 478 39
20 66 20 92 0 160 -41 140 -215 218 -349 155z"/>
<path d="M1495 3496 c-93 -43 -145 -115 -152 -209 -7 -78 8 -132 51 -188 64
-84 194 -121 293 -84 178 68 228 291 95 424 -81 81 -191 103 -287 57z"/>
<path d="M2290 3500 c-206 -96 -215 -377 -15 -472 142 -67 295 -17 365 119 28
55 30 164 4 219 -23 49 -79 104 -129 129 -60 29 -168 31 -225 5z"/>
<path d="M3079 3488 c-157 -82 -191 -281 -70 -411 62 -68 188 -96 277 -62 146
56 212 229 139 363 -72 132 -215 178 -346 110z"/>
<path d="M3873 3490 c-98 -49 -143 -124 -143 -237 0 -57 5 -76 30 -120 86
-149 284 -178 409 -60 79 76 99 208 46 306 -72 131 -212 176 -342 111z"/>
<path d="M745 2721 c-207 -51 -266 -328 -97 -456 144 -111 356 -45 407 127 19
65 19 91 -1 159 -36 123 -178 201 -309 170z"/>
<path d="M1535 2721 c-79 -20 -166 -101 -186 -175 -14 -52 -7 -152 15 -194 21
-40 77 -96 119 -119 47 -26 191 -25 232 1 85 55 129 119 141 203 23 177 -145
326 -321 284z"/>
<path d="M2325 2721 c-179 -44 -254 -268 -139 -418 82 -108 278 -126 385 -35
130 108 119 321 -20 416 -61 42 -148 56 -226 37z"/>
<path d="M3135 2721 c-156 -38 -241 -210 -176 -356 43 -96 113 -145 221 -153
154 -11 272 101 273 258 1 54 -4 74 -28 118 -58 107 -175 161 -290 133z"/>
<path d="M3925 2721 c-160 -39 -243 -220 -169 -369 49 -99 135 -147 248 -140
112 7 189 67 227 173 26 75 20 141 -21 212 -59 103 -171 151 -285 124z"/>
<path d="M745 1931 c-113 -28 -195 -135 -195 -253 1 -105 50 -186 142 -232
127 -63 283 -10 351 119 31 60 30 164 -3 229 -55 108 -178 165 -295 137z"/>
<path d="M1503 1919 c-62 -24 -137 -101 -153 -157 -49 -178 70 -342 247 -342
233 0 348 276 184 440 -77 77 -176 98 -278 59z"/>
<path d="M2296 1920 c-131 -52 -197 -196 -151 -331 60 -177 290 -229 437 -100
130 114 99 339 -56 418 -69 35 -163 41 -230 13z"/>
<path d="M3130 1931 c-47 -15 -85 -39 -122 -78 -121 -125 -84 -328 74 -407
131 -65 294 -5 354 132 23 51 23 157 0 202 -33 63 -63 95 -116 124 -55 30
-143 43 -190 27z"/>
<path d="M3920 1931 c-123 -40 -189 -129 -190 -256 0 -59 5 -78 30 -122 86
-150 283 -179 409 -60 123 118 91 336 -61 413 -55 28 -144 40 -188 25z"/>
</g>
</svg>
